<svg id="svg" version="1.1" xmlns="http://www.w3.org/2000/svg" xmlns:xlink="http://www.w3.org/1999/xlink" width="400" height="400" viewBox="0, 0, 400,400"><g id="svgg"><path id="path0" d="M107.600 148.800 L 107.600 153.600 113.976 153.600 C 117.796 153.600,120.452 153.760,120.600 154.000 C 120.736 154.220,121.197 154.400,121.624 154.400 C 122.051 154.400,122.400 154.580,122.400 154.800 C 122.400 155.020,122.683 155.200,123.029 155.200 C 124.811 155.200,124.758 153.924,124.789 198.041 C 124.808 224.635,124.960 239.920,125.209 240.169 C 125.424 240.384,125.600 241.184,125.600 241.946 C 125.600 243.406,126.727 246.400,127.277 246.400 C 127.455 246.400,127.600 246.940,127.600 247.600 C 127.600 248.260,127.780 248.800,128.000 248.800 C 128.220 248.800,128.400 249.250,128.400 249.800 C 128.400 250.350,128.580 250.800,128.800 250.800 C 129.020 250.800,129.200 251.160,129.200 251.600 C 129.200 252.040,129.380 252.400,129.600 252.400 C 129.820 252.400,130.000 252.670,130.000 253.000 C 130.000 253.330,130.159 253.600,130.353 253.600 C 130.548 253.600,130.801 253.960,130.916 254.400 C 131.031 254.840,131.433 255.200,131.809 255.200 C 132.599 255.200,135.200 257.890,135.200 258.707 C 135.200 259.360,136.165 260.400,136.771 260.400 C 137.007 260.400,137.200 260.580,137.200 260.800 C 137.200 261.020,137.494 261.200,137.853 261.200 C 138.212 261.200,138.797 261.534,139.153 261.943 C 139.509 262.351,140.205 262.813,140.700 262.970 C 141.195 263.126,141.600 263.422,141.600 263.627 C 141.600 263.832,141.878 264.000,142.217 264.000 C 142.556 264.000,143.220 264.360,143.692 264.800 C 144.239 265.310,145.104 265.600,146.075 265.600 C 146.914 265.600,147.600 265.780,147.600 266.000 C 147.600 266.220,147.949 266.400,148.376 266.400 C 148.803 266.400,149.264 266.580,149.400 266.800 C 149.536 267.020,150.155 267.200,150.775 267.200 C 151.395 267.200,152.126 267.470,152.400 267.800 C 152.674 268.130,153.416 268.400,154.049 268.400 C 154.682 268.400,155.200 268.580,155.200 268.800 C 155.200 269.020,155.830 269.200,156.600 269.200 C 157.370 269.200,158.000 269.380,158.000 269.600 C 158.000 269.826,159.133 270.000,160.600 270.000 C 162.067 270.000,163.200 270.174,163.200 270.400 C 163.200 270.647,165.307 270.800,168.720 270.800 C 172.480 270.800,174.393 270.953,174.720 271.280 C 175.093 271.653,175.307 271.653,175.680 271.280 C 176.001 270.959,177.781 270.800,181.056 270.800 C 183.889 270.800,186.057 270.631,186.200 270.400 C 186.336 270.180,187.427 270.000,188.624 270.000 C 189.821 270.000,190.800 269.820,190.800 269.600 C 190.800 269.380,191.520 269.200,192.400 269.200 C 193.280 269.200,194.000 269.020,194.000 268.800 C 194.000 268.580,194.450 268.400,195.000 268.400 C 195.622 268.400,196.000 268.173,196.000 267.800 C 196.000 267.427,196.378 267.200,197.000 267.200 C 197.550 267.200,198.000 267.020,198.000 266.800 C 198.000 266.580,198.540 266.400,199.200 266.400 C 199.860 266.400,200.400 266.220,200.400 266.000 C 200.400 265.780,200.760 265.600,201.200 265.600 C 201.640 265.600,202.000 265.420,202.000 265.200 C 202.000 264.980,202.548 264.800,203.218 264.800 C 203.930 264.800,204.837 264.426,205.399 263.900 C 206.823 262.569,207.539 262.000,207.791 262.000 C 208.322 262.000,216.000 253.966,216.000 253.411 C 216.000 253.075,216.180 252.800,216.400 252.800 C 216.620 252.800,216.800 252.607,216.800 252.371 C 216.800 252.136,217.025 251.692,217.300 251.385 C 218.539 250.004,218.800 249.596,218.800 249.040 C 218.800 248.714,218.980 248.336,219.200 248.200 C 219.420 248.064,219.600 247.603,219.600 247.176 C 219.600 246.749,219.780 246.400,220.000 246.400 C 220.220 246.400,220.400 246.040,220.400 245.600 C 220.400 245.160,220.560 244.800,220.755 244.800 C 221.095 244.800,221.369 243.818,221.871 240.800 C 221.999 240.030,222.280 239.287,222.495 239.149 C 222.711 239.012,222.971 238.022,223.073 236.949 C 223.175 235.877,223.427 234.640,223.633 234.200 C 223.852 233.731,224.069 219.486,224.156 199.800 C 224.300 167.378,224.462 161.744,225.239 162.224 C 225.437 162.347,225.600 161.931,225.600 161.299 C 225.600 160.668,225.960 159.764,226.400 159.292 C 226.840 158.820,227.200 158.289,227.200 158.112 C 227.200 157.935,227.680 157.432,228.266 156.995 C 228.852 156.558,229.559 155.975,229.837 155.700 C 230.115 155.425,230.806 155.200,231.371 155.200 C 231.937 155.200,232.400 155.020,232.400 154.800 C 232.400 154.580,232.940 154.400,233.600 154.400 C 234.260 154.400,234.800 154.220,234.800 154.000 C 234.800 153.763,236.267 153.600,238.400 153.600 L 242.000 153.600 242.000 148.800 L 242.000 144.000 217.800 144.000 L 193.600 144.000 193.600 148.800 L 193.600 153.600 196.376 153.600 C 197.903 153.600,199.264 153.780,199.400 154.000 C 199.536 154.220,200.267 154.400,201.024 154.400 C 201.781 154.400,202.400 154.580,202.400 154.800 C 202.400 155.020,202.760 155.200,203.200 155.200 C 203.640 155.200,204.000 155.380,204.000 155.600 C 204.000 155.820,204.315 156.001,204.700 156.001 C 205.085 156.002,205.760 156.541,206.200 157.200 C 206.640 157.859,207.135 158.398,207.300 158.399 C 207.465 158.399,207.600 158.588,207.600 158.817 C 207.600 159.046,207.960 159.620,208.400 160.092 C 208.840 160.564,209.200 161.187,209.200 161.475 C 209.200 161.764,209.380 162.000,209.600 162.000 C 209.820 162.000,210.000 162.630,210.000 163.400 C 210.000 164.170,210.180 164.800,210.400 164.800 C 210.620 164.800,210.800 165.599,210.800 166.576 C 210.800 167.553,210.980 168.464,211.200 168.600 C 211.461 168.761,211.600 179.330,211.600 199.000 C 211.600 218.670,211.461 229.239,211.200 229.400 C 210.980 229.536,210.800 230.706,210.800 232.000 C 210.800 233.294,210.620 234.464,210.400 234.600 C 210.180 234.736,210.000 235.377,210.000 236.024 C 210.000 236.671,209.820 237.200,209.600 237.200 C 209.380 237.200,209.200 237.652,209.200 238.205 C 209.200 238.758,209.035 239.523,208.834 239.905 C 208.632 240.287,208.191 241.240,207.852 242.021 C 207.514 242.803,206.689 244.016,206.019 244.718 C 205.348 245.419,204.800 246.257,204.800 246.580 C 204.800 247.227,202.430 249.746,200.641 251.000 C 200.013 251.440,199.080 252.205,198.568 252.700 C 198.056 253.195,197.268 253.600,196.818 253.600 C 196.368 253.600,196.000 253.780,196.000 254.000 C 196.000 254.220,195.640 254.400,195.200 254.400 C 194.760 254.400,194.400 254.580,194.400 254.800 C 194.400 255.024,193.293 255.200,191.880 255.200 C 190.494 255.200,189.189 255.360,188.980 255.557 C 188.771 255.753,187.440 255.992,186.023 256.088 C 184.552 256.187,183.379 256.463,183.290 256.731 C 183.050 257.451,178.615 257.341,178.000 256.600 C 177.672 256.204,176.778 256.000,175.375 256.000 C 174.205 256.000,173.136 255.820,173.000 255.600 C 172.864 255.380,171.773 255.200,170.576 255.200 C 169.379 255.200,168.400 255.020,168.400 254.800 C 168.400 254.580,167.853 254.400,167.184 254.400 C 166.294 254.400,165.549 253.972,164.400 252.800 C 163.537 251.920,162.659 251.200,162.448 251.200 C 161.844 251.200,158.970 248.287,158.286 246.982 C 157.946 246.332,157.292 245.535,156.834 245.212 C 156.375 244.888,156.000 244.314,156.000 243.935 C 156.000 243.557,155.820 243.136,155.600 243.000 C 155.380 242.864,155.200 242.144,155.200 241.400 C 155.200 240.656,155.020 239.936,154.800 239.800 C 154.580 239.664,154.400 238.944,154.400 238.200 C 154.400 237.456,154.220 236.736,154.000 236.600 C 153.780 236.464,153.600 235.373,153.600 234.176 C 153.600 232.979,153.420 232.000,153.200 232.000 C 152.936 232.000,152.800 219.333,152.800 194.800 C 152.800 170.267,152.936 157.600,153.200 157.600 C 153.420 157.600,153.600 157.060,153.600 156.400 C 153.600 155.677,153.808 155.200,154.125 155.200 C 154.413 155.200,155.036 154.840,155.508 154.400 C 156.301 153.661,156.919 153.600,163.583 153.600 L 170.800 153.600 170.800 148.800 L 170.800 144.000 139.200 144.000 L 107.600 144.000 107.600 148.800 M320.400 174.843 C 320.400 175.086,320.144 175.187,319.830 175.067 C 319.203 174.826,317.200 176.612,317.200 177.412 C 317.200 177.688,316.930 178.018,316.600 178.145 C 316.144 178.320,316.000 179.061,316.000 181.227 L 316.000 184.079 318.097 186.140 C 320.931 188.923,326.400 190.676,326.400 188.800 C 326.400 188.580,326.831 188.400,327.357 188.400 C 327.884 188.400,328.418 188.130,328.545 187.800 C 328.671 187.470,329.051 187.200,329.387 187.200 C 329.724 187.200,330.000 186.964,330.000 186.675 C 330.000 186.387,330.360 185.764,330.800 185.292 C 331.679 184.349,332.027 178.000,331.200 178.000 C 330.980 178.000,330.800 177.640,330.800 177.200 C 330.800 176.760,330.620 176.400,330.400 176.400 C 330.180 176.400,330.000 176.130,330.000 175.800 C 330.000 175.381,329.578 175.200,328.600 175.200 C 327.830 175.200,327.200 175.020,327.200 174.800 C 327.200 174.565,325.800 174.400,323.800 174.400 C 321.581 174.400,320.400 174.554,320.400 174.843 M364.000 188.176 C 364.000 190.033,363.820 191.664,363.600 191.800 C 363.380 191.936,363.200 192.742,363.200 193.590 C 363.200 194.439,363.026 195.193,362.813 195.267 C 362.600 195.340,362.382 195.973,362.330 196.672 C 362.277 197.372,362.051 197.912,361.827 197.872 C 361.602 197.833,361.357 198.205,361.282 198.700 C 361.206 199.195,360.977 199.600,360.772 199.600 C 360.567 199.600,360.400 199.949,360.400 200.376 C 360.400 200.803,360.220 201.264,360.000 201.400 C 359.780 201.536,359.600 201.915,359.600 202.242 C 359.600 202.880,357.865 204.800,357.288 204.800 C 356.785 204.800,355.200 206.566,355.200 207.126 C 355.200 207.387,354.930 207.600,354.600 207.600 C 354.270 207.600,354.000 207.780,354.000 208.000 C 354.000 208.220,353.550 208.400,353.000 208.400 C 352.450 208.400,352.000 208.580,352.000 208.800 C 352.000 209.020,351.471 209.200,350.824 209.200 C 350.177 209.200,349.536 209.380,349.400 209.600 C 349.264 209.820,348.803 210.000,348.376 210.000 C 347.687 210.000,347.600 210.293,347.600 212.600 L 347.600 215.200 352.800 215.200 L 358.000 215.200 358.000 237.576 C 358.000 252.063,358.141 260.040,358.400 260.200 C 358.620 260.336,358.800 260.797,358.800 261.224 C 358.800 261.651,358.980 262.000,359.200 262.000 C 359.420 262.000,359.606 262.315,359.613 262.700 C 359.631 263.679,360.560 264.800,361.355 264.800 C 361.721 264.800,362.831 265.610,363.821 266.600 C 364.984 267.763,365.971 268.400,366.611 268.400 C 367.155 268.400,367.600 268.580,367.600 268.800 C 367.600 269.049,369.867 269.200,373.600 269.200 C 377.333 269.200,379.600 269.049,379.600 268.800 C 379.600 268.580,380.140 268.400,380.800 268.400 C 381.600 268.400,382.000 268.200,382.000 267.800 C 382.000 267.457,382.360 267.200,382.840 267.200 C 383.301 267.200,384.183 266.660,384.800 266.000 C 385.417 265.340,386.209 264.800,386.560 264.800 C 386.912 264.800,387.200 264.524,387.200 264.187 C 387.200 263.851,387.470 263.471,387.800 263.345 C 388.130 263.218,388.400 262.864,388.400 262.557 C 388.400 262.251,388.580 262.000,388.800 262.000 C 389.020 262.000,389.200 261.640,389.200 261.200 C 389.200 260.760,389.380 260.400,389.600 260.400 C 389.820 260.400,390.000 260.040,390.000 259.600 C 390.000 259.160,390.180 258.800,390.400 258.800 C 390.620 258.800,390.800 258.170,390.800 257.400 C 390.800 256.630,390.980 256.000,391.200 256.000 C 391.420 256.000,391.600 255.572,391.600 255.049 C 391.600 254.526,391.870 253.874,392.200 253.600 C 392.663 253.216,392.800 252.153,392.800 248.951 L 392.800 244.800 389.843 244.800 C 386.432 244.800,386.400 244.833,386.400 248.409 C 386.400 249.698,386.220 250.864,386.000 251.000 C 385.780 251.136,385.600 251.957,385.600 252.824 C 385.600 253.691,385.420 254.400,385.200 254.400 C 384.980 254.400,384.800 255.030,384.800 255.800 C 384.800 256.570,384.620 257.200,384.400 257.200 C 384.180 257.200,384.000 257.478,384.000 257.818 C 384.000 258.496,382.267 260.400,381.651 260.400 C 381.074 260.400,378.805 261.754,378.803 262.100 C 378.801 262.265,377.990 262.400,377.000 262.400 C 375.667 262.400,375.200 262.244,375.200 261.800 C 375.200 261.470,374.917 261.200,374.571 261.200 C 374.226 261.200,373.715 260.975,373.437 260.700 C 373.159 260.425,372.452 259.842,371.866 259.405 C 371.260 258.953,370.800 258.220,370.800 257.705 C 370.800 257.207,370.620 256.800,370.400 256.800 C 370.138 256.800,370.000 249.600,370.000 236.000 L 370.000 215.200 379.200 215.200 L 388.400 215.200 388.400 211.800 L 388.400 208.400 379.200 208.400 L 370.000 208.400 370.000 196.600 L 370.000 184.800 367.000 184.800 L 364.000 184.800 364.000 188.176 M240.000 208.000 C 240.000 208.245,238.067 208.400,235.000 208.400 L 230.000 208.400 230.000 211.400 L 230.000 214.400 232.576 214.400 C 233.993 214.400,235.264 214.580,235.400 214.800 C 235.536 215.020,236.279 215.200,237.052 215.200 C 238.544 215.200,239.600 215.934,239.600 216.971 C 239.600 217.317,239.780 217.600,240.000 217.600 C 240.220 217.600,240.400 218.399,240.400 219.376 C 240.400 220.353,240.580 221.264,240.800 221.400 C 241.057 221.559,241.200 228.131,241.200 239.805 C 241.200 258.653,241.160 259.147,239.503 260.975 C 239.116 261.402,238.800 261.897,238.800 262.075 C 238.800 262.254,238.181 262.400,237.424 262.400 C 236.667 262.400,235.936 262.580,235.800 262.800 C 235.664 263.020,234.483 263.200,233.176 263.200 L 230.800 263.200 230.800 265.800 L 230.800 268.400 247.000 268.400 L 263.200 268.400 263.200 265.800 L 263.200 263.200 260.000 263.200 C 258.133 263.200,256.800 263.033,256.800 262.800 C 256.800 262.580,256.530 262.400,256.200 262.400 C 255.392 262.400,254.213 261.169,253.419 259.497 C 252.340 257.222,252.888 230.230,254.039 229.020 C 254.237 228.811,254.400 228.247,254.400 227.766 C 254.400 227.285,254.661 226.389,254.980 225.774 C 255.298 225.160,255.468 224.509,255.356 224.329 C 255.244 224.148,255.343 224.000,255.576 224.000 C 255.809 224.000,256.000 223.627,256.000 223.171 C 256.000 222.441,256.832 221.200,257.322 221.200 C 257.421 221.200,258.266 220.480,259.200 219.600 C 260.134 218.720,261.147 218.000,261.449 218.000 C 261.752 218.000,262.000 217.730,262.000 217.400 C 262.000 217.031,262.375 216.800,262.976 216.800 C 263.513 216.800,264.064 216.620,264.200 216.400 C 264.339 216.175,266.271 216.000,268.624 216.000 C 271.141 216.000,272.800 216.159,272.800 216.400 C 272.800 216.620,273.160 216.800,273.600 216.800 C 274.040 216.800,274.400 216.935,274.400 217.100 C 274.401 217.507,276.222 219.600,276.575 219.600 C 277.089 219.600,278.000 220.733,278.000 221.371 C 278.000 221.717,278.180 222.000,278.400 222.000 C 278.620 222.000,278.800 222.360,278.800 222.800 C 278.800 223.240,278.980 223.600,279.200 223.600 C 279.420 223.600,279.600 224.050,279.600 224.600 C 279.600 225.150,279.780 225.600,280.000 225.600 C 280.898 225.600,280.506 260.147,279.600 260.800 C 279.160 261.117,278.800 261.607,278.800 261.888 C 278.800 262.228,278.195 262.400,277.000 262.400 C 276.010 262.400,275.200 262.580,275.200 262.800 C 275.200 263.020,274.210 263.200,273.000 263.200 L 270.800 263.200 270.800 265.805 L 270.800 268.409 286.900 268.305 L 303.000 268.200 303.119 265.700 L 303.238 263.200 300.019 263.200 C 298.140 263.200,296.800 263.034,296.800 262.800 C 296.800 262.580,296.440 262.400,296.000 262.400 C 295.072 262.400,293.600 261.065,293.600 260.224 C 293.600 259.907,293.420 259.536,293.200 259.400 C 292.943 259.241,292.800 252.872,292.800 241.605 C 292.800 226.540,292.715 223.972,292.200 223.457 C 291.870 223.127,291.600 222.214,291.600 221.429 C 291.600 220.643,291.420 220.000,291.200 220.000 C 290.980 220.000,290.800 219.550,290.800 219.000 C 290.800 218.450,290.620 218.000,290.400 218.000 C 290.180 218.000,290.000 217.713,290.000 217.362 C 290.000 216.455,288.455 214.400,287.773 214.400 C 287.458 214.400,287.200 214.080,287.200 213.688 C 287.200 213.297,286.840 212.717,286.400 212.400 C 285.960 212.083,285.600 211.670,285.600 211.483 C 285.600 210.914,284.674 210.195,283.200 209.619 C 282.430 209.318,281.629 208.921,281.420 208.736 C 281.211 208.551,280.547 208.400,279.944 208.400 C 279.341 208.400,278.736 208.220,278.600 208.000 C 278.456 207.767,276.204 207.600,273.200 207.600 C 270.196 207.600,267.944 207.767,267.800 208.000 C 267.664 208.220,266.933 208.400,266.176 208.400 C 265.419 208.400,264.800 208.580,264.800 208.800 C 264.800 209.020,264.440 209.200,264.000 209.200 C 263.560 209.200,263.200 209.380,263.200 209.600 C 263.200 209.820,262.947 210.000,262.638 210.000 C 261.723 210.000,258.800 211.707,258.800 212.241 C 258.800 212.511,258.260 212.972,257.600 213.264 C 256.940 213.556,256.400 213.931,256.400 214.098 C 256.400 214.264,256.207 214.400,255.971 214.400 C 255.324 214.400,254.400 215.458,254.400 216.200 C 254.400 216.829,253.508 218.000,253.029 218.000 C 252.903 218.000,252.800 217.274,252.800 216.387 C 252.800 215.323,252.596 214.697,252.200 214.545 C 251.753 214.373,251.600 213.661,251.600 211.757 C 251.600 210.319,251.425 209.200,251.200 209.200 C 250.980 209.200,250.800 208.840,250.800 208.400 C 250.800 207.640,250.533 207.600,245.400 207.600 C 242.067 207.600,240.000 207.753,240.000 208.000 M327.400 208.000 C 327.246 208.249,323.412 208.400,317.225 208.400 C 305.938 208.400,306.485 208.227,306.494 211.798 C 306.503 215.368,306.237 215.200,311.861 215.200 C 317.103 215.200,318.800 215.831,318.800 217.782 C 318.800 218.122,318.980 218.400,319.200 218.400 C 319.462 218.400,319.600 225.667,319.600 239.400 C 319.600 253.133,319.462 260.400,319.200 260.400 C 318.980 260.400,318.800 260.593,318.800 260.829 C 318.800 262.185,316.810 262.834,311.900 263.081 L 308.400 263.257 308.400 265.828 L 308.400 268.400 325.800 268.400 L 343.200 268.400 343.200 265.800 L 343.200 263.200 339.200 263.200 C 336.800 263.200,335.200 263.040,335.200 262.800 C 335.200 262.580,334.906 262.400,334.547 262.400 C 333.793 262.400,332.400 260.933,332.400 260.139 C 332.400 259.842,332.220 259.600,332.000 259.600 C 331.737 259.600,331.600 250.667,331.600 233.600 L 331.600 207.600 329.624 207.600 C 328.537 207.600,327.536 207.780,327.400 208.000 " stroke="none" fill="#cc0404" fill-rule="evenodd"></path><path id="path1" d="M47.688 133.500 L 47.800 138.600 56.300 138.708 C 61.512 138.774,64.800 138.968,64.800 139.208 C 64.800 139.424,65.125 139.600,65.522 139.600 C 66.679 139.600,69.200 142.156,69.200 143.330 C 69.200 143.893,69.380 144.464,69.600 144.600 C 69.863 144.762,70.000 160.671,70.000 191.024 C 70.000 221.541,69.864 237.200,69.600 237.200 C 69.374 237.200,69.200 238.333,69.200 239.800 C 69.200 241.267,69.026 242.400,68.800 242.400 C 68.580 242.400,68.400 242.940,68.400 243.600 C 68.400 244.260,68.220 244.800,68.000 244.800 C 67.780 244.800,67.600 245.173,67.600 245.629 C 67.600 246.084,67.330 246.727,67.000 247.057 C 66.670 247.387,66.400 248.004,66.400 248.429 C 66.400 248.853,66.248 249.200,66.063 249.200 C 65.744 249.200,64.316 251.837,63.865 253.260 C 63.750 253.623,62.743 254.416,61.628 255.023 C 60.513 255.630,59.600 256.369,59.600 256.664 C 59.600 256.959,59.240 257.200,58.800 257.200 C 58.360 257.200,58.000 257.380,58.000 257.600 C 58.000 257.820,57.640 258.000,57.200 258.000 C 56.760 258.000,56.400 258.180,56.400 258.400 C 56.400 258.620,55.950 258.800,55.400 258.800 C 54.850 258.800,54.400 258.936,54.400 259.103 C 54.400 259.269,53.683 259.629,52.806 259.903 C 50.852 260.512,39.600 260.595,39.600 260.000 C 39.600 259.780,38.872 259.600,37.983 259.600 C 36.919 259.600,36.073 259.326,35.508 258.800 C 35.036 258.360,34.233 258.000,33.725 258.000 C 33.216 258.000,32.800 257.820,32.800 257.600 C 32.800 257.380,32.573 257.200,32.296 257.200 C 32.019 257.200,31.307 256.750,30.713 256.200 C 30.120 255.650,29.357 255.200,29.017 255.200 C 28.678 255.200,28.400 255.020,28.400 254.800 C 28.400 254.580,28.027 254.400,27.571 254.400 C 26.388 254.400,25.600 253.452,25.600 252.029 C 25.600 251.353,25.420 250.800,25.200 250.800 C 24.980 250.800,24.800 250.260,24.800 249.600 C 24.800 248.940,24.620 248.400,24.400 248.400 C 23.583 248.400,23.997 245.966,24.982 244.982 C 26.003 243.961,30.000 243.497,30.000 244.400 C 30.000 244.644,31.867 244.800,34.800 244.800 C 37.733 244.800,39.600 244.644,39.600 244.400 C 39.600 244.180,39.960 244.000,40.400 244.000 C 40.840 244.000,41.200 243.820,41.200 243.600 C 41.200 243.380,41.491 243.200,41.847 243.200 C 42.639 243.200,45.600 240.220,45.600 239.423 C 45.600 239.106,45.780 238.736,46.000 238.600 C 46.220 238.464,46.400 238.003,46.400 237.576 C 46.400 237.149,46.580 236.800,46.800 236.800 C 47.020 236.800,47.200 236.524,47.200 236.187 C 47.200 235.851,47.470 235.471,47.800 235.345 C 48.207 235.188,48.400 234.550,48.400 233.357 C 48.400 232.391,48.580 231.600,48.800 231.600 C 49.035 231.600,49.200 230.200,49.200 228.200 C 49.200 226.200,49.035 224.800,48.800 224.800 C 48.580 224.800,48.400 224.164,48.400 223.387 C 48.400 222.501,48.177 221.889,47.800 221.745 C 47.470 221.618,47.200 221.084,47.200 220.557 C 47.200 220.031,47.020 219.600,46.800 219.600 C 46.580 219.600,46.400 219.240,46.400 218.800 C 46.400 218.360,46.220 218.000,46.000 218.000 C 45.780 218.000,45.600 217.581,45.600 217.070 C 45.600 216.030,44.276 214.636,42.887 214.215 C 42.385 214.063,41.575 213.547,41.087 213.068 C 39.657 211.666,38.102 210.800,37.014 210.800 C 36.456 210.800,36.000 210.620,36.000 210.400 C 36.000 210.180,35.471 210.000,34.824 210.000 C 34.177 210.000,33.536 209.820,33.400 209.600 C 33.264 209.380,31.644 209.200,29.800 209.200 C 27.956 209.200,26.336 209.380,26.200 209.600 C 26.064 209.820,25.333 210.000,24.576 210.000 C 23.819 210.000,23.200 210.180,23.200 210.400 C 23.200 210.620,22.744 210.800,22.186 210.800 C 21.107 210.800,19.418 211.721,18.353 212.890 C 17.997 213.280,17.423 213.600,17.077 213.600 C 16.730 213.600,16.336 213.780,16.200 214.000 C 16.064 214.220,15.603 214.400,15.176 214.400 C 14.667 214.400,14.400 214.675,14.400 215.200 C 14.400 215.640,14.220 216.000,14.000 216.000 C 13.780 216.000,13.600 216.188,13.600 216.418 C 13.600 216.648,13.195 217.270,12.700 217.799 C 11.336 219.257,11.082 219.635,10.000 221.800 C 9.450 222.900,8.865 223.860,8.700 223.933 C 8.535 224.007,8.400 224.682,8.400 225.433 C 8.400 226.185,8.220 226.800,8.000 226.800 C 7.457 226.800,7.457 242.264,8.000 242.600 C 8.220 242.736,8.400 243.389,8.400 244.052 C 8.400 244.715,8.670 245.527,8.999 245.857 C 9.329 246.186,9.715 246.938,9.858 247.528 C 10.000 248.118,10.450 249.078,10.858 249.662 C 11.266 250.246,11.600 250.921,11.600 251.162 C 11.600 251.403,11.870 251.600,12.200 251.600 C 12.558 251.600,12.800 251.968,12.800 252.512 C 12.800 253.013,13.160 253.683,13.600 254.000 C 14.040 254.317,14.400 254.816,14.400 255.108 C 14.400 255.844,19.844 261.200,20.592 261.200 C 20.926 261.200,21.200 261.380,21.200 261.600 C 21.200 261.820,21.470 262.000,21.800 262.000 C 22.130 262.000,22.400 262.188,22.400 262.418 C 22.400 263.567,25.464 265.600,27.195 265.600 C 27.858 265.600,28.400 265.780,28.400 266.000 C 28.400 266.220,28.760 266.400,29.200 266.400 C 29.640 266.400,30.000 266.580,30.000 266.800 C 30.000 267.020,30.630 267.200,31.400 267.200 C 32.378 267.200,32.800 267.381,32.800 267.800 C 32.800 268.133,33.156 268.400,33.600 268.400 C 34.040 268.400,34.400 268.580,34.400 268.800 C 34.400 269.020,35.030 269.200,35.800 269.200 C 36.570 269.200,37.200 269.380,37.200 269.600 C 37.200 269.820,37.909 270.000,38.776 270.000 C 39.643 270.000,40.464 270.180,40.600 270.400 C 40.736 270.620,41.906 270.800,43.200 270.800 C 44.494 270.800,45.664 270.980,45.800 271.200 C 45.950 271.443,48.871 271.600,53.224 271.600 C 57.741 271.600,60.400 271.452,60.400 271.200 C 60.400 270.974,61.533 270.800,63.000 270.800 C 64.467 270.800,65.600 270.626,65.600 270.400 C 65.600 270.180,66.489 270.000,67.576 270.000 C 68.663 270.000,69.664 269.820,69.800 269.600 C 69.936 269.380,70.566 269.200,71.200 269.200 C 71.834 269.200,72.464 269.020,72.600 268.800 C 72.736 268.580,73.377 268.400,74.024 268.400 C 74.803 268.400,75.200 268.197,75.200 267.800 C 75.200 267.467,75.556 267.200,76.000 267.200 C 76.440 267.200,76.800 267.020,76.800 266.800 C 76.800 266.580,77.149 266.400,77.576 266.400 C 78.003 266.400,78.464 266.220,78.600 266.000 C 78.736 265.780,79.341 265.600,79.944 265.600 C 81.140 265.600,83.192 264.780,83.197 264.300 C 83.199 264.135,83.442 264.000,83.738 264.000 C 84.462 264.000,85.600 262.697,85.600 261.869 C 85.600 261.467,85.919 261.200,86.400 261.200 C 86.840 261.200,87.200 261.020,87.200 260.800 C 87.200 260.580,87.398 260.400,87.640 260.400 C 88.101 260.400,89.650 258.859,90.995 257.062 C 91.432 256.478,91.948 256.000,92.141 256.000 C 92.762 256.000,95.200 253.068,95.200 252.322 C 95.200 251.925,95.380 251.600,95.600 251.600 C 95.820 251.600,96.000 251.071,96.000 250.424 C 96.000 249.777,96.180 249.136,96.400 249.000 C 96.620 248.864,96.800 248.403,96.800 247.976 C 96.800 247.549,96.935 247.199,97.100 247.197 C 97.552 247.194,98.800 244.840,98.800 243.991 C 98.800 243.582,98.980 243.136,99.200 243.000 C 99.420 242.864,99.600 242.043,99.600 241.176 C 99.600 240.309,99.780 239.600,100.000 239.600 C 100.235 239.600,100.400 238.208,100.400 236.224 C 100.400 234.367,100.580 232.736,100.800 232.600 C 101.063 232.438,101.200 217.070,101.200 187.800 C 101.200 158.530,101.337 143.162,101.600 143.000 C 101.820 142.864,102.000 142.403,102.000 141.976 C 102.000 141.549,102.230 141.200,102.512 141.200 C 102.793 141.200,103.283 140.840,103.600 140.400 C 103.917 139.960,104.497 139.600,104.888 139.600 C 105.280 139.600,105.600 139.420,105.600 139.200 C 105.600 138.952,107.803 138.800,111.410 138.800 L 117.220 138.800 117.610 137.774 C 118.037 136.651,118.133 130.738,117.748 129.300 L 117.507 128.400 82.541 128.400 L 47.576 128.400 47.688 133.500 M124.053 158.400 C 124.038 161.517,124.563 161.516,124.723 158.399 C 124.794 157.020,124.680 156.000,124.455 156.000 C 124.240 156.000,124.060 157.080,124.053 158.400 M224.800 163.000 C 224.800 163.596,224.972 163.941,225.200 163.800 C 225.420 163.664,225.600 163.304,225.600 163.000 C 225.600 162.696,225.420 162.336,225.200 162.200 C 224.972 162.059,224.800 162.404,224.800 163.000 M327.200 174.800 C 327.200 175.020,327.661 175.200,328.224 175.200 C 328.804 175.200,329.140 175.027,329.000 174.800 C 328.864 174.580,328.403 174.400,327.976 174.400 C 327.549 174.400,327.200 174.580,327.200 174.800 M364.200 184.400 C 364.045 184.651,364.929 184.800,366.576 184.800 C 368.059 184.800,369.200 184.626,369.200 184.400 C 369.200 184.178,368.141 184.000,366.824 184.000 C 365.517 184.000,364.336 184.180,364.200 184.400 M330.487 185.609 C 330.019 186.359,330.041 186.381,330.791 185.913 C 331.236 185.635,331.600 185.271,331.600 185.104 C 331.600 184.526,330.991 184.803,330.487 185.609 M315.200 215.600 C 315.200 215.820,315.650 216.000,316.200 216.000 C 316.750 216.000,317.200 215.820,317.200 215.600 C 317.200 215.380,316.750 215.200,316.200 215.200 C 315.650 215.200,315.200 215.380,315.200 215.600 M347.600 215.600 C 347.600 215.846,349.600 216.000,352.800 216.000 C 356.000 216.000,358.000 215.846,358.000 215.600 C 358.000 215.354,356.000 215.200,352.800 215.200 C 349.600 215.200,347.600 215.354,347.600 215.600 M370.000 215.600 C 370.000 215.855,373.333 216.000,379.200 216.000 C 385.067 216.000,388.400 215.855,388.400 215.600 C 388.400 215.345,385.067 215.200,379.200 215.200 C 373.333 215.200,370.000 215.345,370.000 215.600 M168.400 254.835 C 168.400 255.036,168.790 255.200,169.267 255.200 C 169.743 255.200,170.008 255.075,169.855 254.922 C 169.423 254.489,168.400 254.429,168.400 254.835 M192.400 254.800 C 191.945 255.094,192.114 255.189,193.100 255.194 C 193.815 255.197,194.400 255.020,194.400 254.800 C 194.400 254.292,193.186 254.292,192.400 254.800 M214.860 255.042 C 214.131 255.866,214.600 256.257,215.381 255.476 C 215.721 255.136,216.000 254.754,216.000 254.629 C 216.000 254.209,215.406 254.424,214.860 255.042 M384.000 256.600 C 384.000 256.930,384.180 257.200,384.400 257.200 C 384.620 257.200,384.800 256.930,384.800 256.600 C 384.800 256.270,384.620 256.000,384.400 256.000 C 384.180 256.000,384.000 256.270,384.000 256.600 M202.000 265.200 C 202.000 265.420,202.349 265.600,202.776 265.600 C 203.203 265.600,203.664 265.420,203.800 265.200 C 203.940 264.973,203.604 264.800,203.024 264.800 C 202.461 264.800,202.000 264.980,202.000 265.200 M361.200 265.200 C 361.200 265.420,361.470 265.600,361.800 265.600 C 362.130 265.600,362.400 265.420,362.400 265.200 C 362.400 264.980,362.130 264.800,361.800 264.800 C 361.470 264.800,361.200 264.980,361.200 265.200 " stroke="none" fill="#4c9c04" fill-rule="evenodd"></path><path id="path2" d="" stroke="none" fill="#d02808" fill-rule="evenodd"></path><path id="path3" d="" stroke="none" fill="#d02808" fill-rule="evenodd"></path><path id="path4" d="" stroke="none" fill="#d02808" fill-rule="evenodd"></path></g></svg>